<svg xmlns="http://www.w3.org/2000/svg" viewBox="280 90 470 470">
  <g fill="#508667" stroke="#508667" stroke-width="12" stroke-linejoin="round" stroke-linecap="round">
    <path d="M515 421 Q576.0 309.0 515 197 Q454.0 309.0 515 421 Z"/>
    <path d="M515 421 Q566.6 301.1 455 201 Q435.4 336.9 515 421 Z"/>
    <path d="M515 421 Q594.6 336.9 575 201 Q463.4 301.1 515 421 Z"/>
    <path d="M515 421 Q508.7 280.5 357 258 Q395.3 390.5 515 421 Z"/>
    <path d="M515 421 Q635.4 390.8 675 258 Q522.6 280.2 515 421 Z"/>
    <path d="M515 421 Q469.5 268.3 305 350 Q410.5 442.7 515 421 Z"/>
    <path d="M515 421 Q620.6 441.4 726 348 Q560.4 267.6 515 421 Z"/>
    <ellipse cx="515" cy="447" rx="86" ry="9"/>
  </g>
</svg>
